<svg width="161" height="47" viewBox="0 0 161 47" fill="none" xmlns="http://www.w3.org/2000/svg">
<path d="M160.055 41.3359C160.055 43.7991 158.019 45.7944 155.499 45.7944H6.39541C3.87725 45.7944 1.83325 43.7991 1.83325 41.3359V5.78074C1.83325 3.31866 3.87725 1.31641 6.39541 1.31641H155.498C158.019 1.31641 160.054 3.31866 160.054 5.78074L160.055 41.3359Z" fill="white"/>
<path d="M155.018 1.37017C157.762 1.37017 159.995 3.54695 159.995 6.22206V40.8887C159.995 43.5638 157.762 45.7406 155.018 45.7406H6.87026C4.12656 45.7406 1.89397 43.5638 1.89397 40.8887V6.22206C1.89397 3.54695 4.12656 1.37017 6.87026 1.37017H155.018ZM155.018 0.444282H6.87026C3.61248 0.444282 0.944336 3.04572 0.944336 6.22206V40.8887C0.944336 44.0651 3.61248 46.6665 6.87026 46.6665H155.018C158.276 46.6665 160.944 44.0651 160.944 40.8887V6.22206C160.944 3.04572 158.276 0.444282 155.018 0.444282Z" fill="#A6A6A6"/>
<path d="M36.6517 23.3058C36.6173 19.5815 39.7794 17.7696 39.924 17.6852C38.1332 15.1395 35.3575 14.7917 34.3821 14.764C32.0508 14.5248 29.7895 16.1241 28.6019 16.1241C27.3907 16.1241 25.5619 14.7871 23.591 14.8264C21.0547 14.8645 18.6819 16.2962 17.3806 18.5195C14.695 23.0528 16.6979 29.7145 19.271 33.3788C20.5581 35.1734 22.0621 37.1771 24.0307 37.1066C25.9566 37.0292 26.676 35.9095 29.0002 35.9095C31.303 35.9095 31.9785 37.1066 33.9862 37.0616C36.0532 37.0292 37.3545 35.2589 38.5966 33.4481C40.084 31.3913 40.6813 29.3656 40.705 29.2616C40.6564 29.2454 36.6908 27.7698 36.6517 23.3058Z" fill="black"/>
<path d="M32.8591 12.3535C33.895 11.0905 34.6037 9.37215 34.407 7.62842C32.9077 7.69313 31.0327 8.63953 29.953 9.87482C28.9978 10.9634 28.1444 12.7475 28.3649 14.4254C30.049 14.5479 31.7782 13.5969 32.8591 12.3535Z" fill="black"/>
<path d="M59.0777 12.0105C59.0777 13.3706 58.6593 14.3944 57.8238 15.082C57.0498 15.7164 55.95 16.0341 54.5254 16.0341C53.819 16.0341 53.2146 16.0041 52.7085 15.944V8.51262C53.3686 8.40862 54.0798 8.35547 54.8478 8.35547C56.2048 8.35547 57.2276 8.6432 57.9174 9.21867C58.6901 9.86925 59.0777 10.7995 59.0777 12.0105ZM57.7681 12.044C57.7681 11.1623 57.5287 10.4863 57.0498 10.0148C56.571 9.54453 55.8718 9.3088 54.9509 9.3088C54.5598 9.3088 54.2267 9.33422 53.9506 9.38738V15.0369C54.1035 15.06 54.3832 15.0704 54.7897 15.0704C55.7402 15.0704 56.4738 14.8127 56.9906 14.2973C57.5073 13.782 57.7681 13.0308 57.7681 12.044Z" fill="black"/>
<path d="M66.0218 13.1984C66.0218 14.0362 65.7765 14.7226 65.2858 15.2611C64.7714 15.8146 64.09 16.0908 63.239 16.0908C62.4188 16.0908 61.7658 15.8262 61.2787 15.2946C60.7928 14.7642 60.5498 14.0952 60.5498 13.2886C60.5498 12.445 60.7999 11.7528 61.3024 11.2155C61.8049 10.6782 62.4805 10.4089 63.3314 10.4089C64.1516 10.4089 64.8105 10.6736 65.3095 11.204C65.7836 11.7193 66.0218 12.3849 66.0218 13.1984ZM64.7335 13.2377C64.7335 12.7351 64.6221 12.304 64.4005 11.9447C64.1397 11.5102 63.7688 11.2929 63.2864 11.2929C62.7874 11.2929 62.4082 11.5102 62.1474 11.9447C61.9246 12.304 61.8144 12.742 61.8144 13.2597C61.8144 13.7624 61.9258 14.1934 62.1474 14.5528C62.4165 14.9872 62.791 15.2045 63.2745 15.2045C63.7486 15.2045 64.1208 14.9838 64.3886 14.5412C64.6185 14.1749 64.7335 13.7404 64.7335 13.2377Z" fill="black"/>
<path d="M75.3326 10.5198L73.5845 15.9671H72.4467L71.7225 13.6016C71.5388 13.0112 71.3895 12.4241 71.2733 11.8417H71.2508C71.143 12.4403 70.9936 13.0262 70.8016 13.6016L70.0325 15.9671H68.8816L67.2378 10.5198H68.5142L69.1459 13.1094C69.2988 13.7218 69.4245 14.3054 69.5252 14.8577H69.5477C69.6402 14.4024 69.793 13.8224 70.0088 13.1209L70.8016 10.5209H71.8138L72.5735 13.0655C72.7572 13.686 72.9065 14.2834 73.0215 14.8589H73.0559C73.14 14.2984 73.2668 13.701 73.4351 13.0655L74.113 10.5209H75.3326V10.5198Z" fill="black"/>
<path d="M81.7717 15.967H80.5296V12.847C80.5296 11.8855 80.1551 11.4048 79.4037 11.4048C79.0351 11.4048 78.7376 11.5366 78.5065 11.8012C78.2778 12.0658 78.1616 12.3778 78.1616 12.7349V15.9658H76.9195V12.0762C76.9195 11.5978 76.9041 11.079 76.8745 10.5174H77.9661L78.0241 11.369H78.0585C78.2031 11.1044 78.4188 10.886 78.7021 10.7115C79.0387 10.5081 79.4155 10.4053 79.828 10.4053C80.3495 10.4053 80.7832 10.5694 81.1281 10.8987C81.5572 11.302 81.7717 11.904 81.7717 12.7037V15.967Z" fill="black"/>
<path d="M85.1967 15.967H83.9558V8.02026H85.1967V15.967Z" fill="black"/>
<path d="M92.5094 13.1984C92.5094 14.0362 92.264 14.7226 91.7734 15.2611C91.259 15.8146 90.5763 16.0908 89.7265 16.0908C88.9052 16.0908 88.2522 15.8262 87.7662 15.2946C87.2803 14.7642 87.0374 14.0952 87.0374 13.2886C87.0374 12.445 87.2874 11.7528 87.7899 11.2155C88.2925 10.6782 88.968 10.4089 89.8178 10.4089C90.6391 10.4089 91.2969 10.6736 91.7971 11.204C92.2711 11.7193 92.5094 12.3849 92.5094 13.1984ZM91.2199 13.2377C91.2199 12.7351 91.1085 12.304 90.8868 11.9447C90.6273 11.5102 90.2551 11.2929 89.7739 11.2929C89.2738 11.2929 88.8945 11.5102 88.635 11.9447C88.4122 12.304 88.3019 12.742 88.3019 13.2597C88.3019 13.7624 88.4134 14.1934 88.635 14.5528C88.904 14.9872 89.2785 15.2045 89.7621 15.2045C90.2362 15.2045 90.6071 14.9838 90.875 14.5412C91.1061 14.1749 91.2199 13.7404 91.2199 13.2377Z" fill="black"/>
<path d="M98.5207 15.9672H97.4055L97.313 15.3397H97.2787C96.897 15.84 96.353 16.0908 95.6467 16.0908C95.1193 16.0908 94.6926 15.9256 94.3714 15.5974C94.0799 15.2992 93.9341 14.9283 93.9341 14.488C93.9341 13.8224 94.2185 13.3152 94.791 12.9639C95.3622 12.6126 96.1658 12.4404 97.2005 12.4485V12.3468C97.2005 11.6292 96.8141 11.271 96.0402 11.271C95.489 11.271 95.0031 11.4062 94.5836 11.6743L94.3311 10.8792C94.8502 10.5661 95.4914 10.4089 96.2476 10.4089C97.7077 10.4089 98.4402 11.16 98.4402 12.6623V14.6683C98.4402 15.2126 98.4674 15.6459 98.5207 15.9672ZM97.2313 14.0952V13.2551C95.8612 13.232 95.1762 13.5983 95.1762 14.3528C95.1762 14.6371 95.2544 14.8497 95.4144 14.9919C95.5744 15.134 95.7782 15.2045 96.0212 15.2045C96.2938 15.2045 96.5486 15.1201 96.7809 14.9526C97.0144 14.7839 97.1578 14.5701 97.2111 14.3078C97.2242 14.2488 97.2313 14.1772 97.2313 14.0952Z" fill="black"/>
<path d="M105.578 15.967H104.476L104.418 15.0923H104.384C104.032 15.7579 103.432 16.0907 102.589 16.0907C101.916 16.0907 101.356 15.833 100.911 15.3176C100.467 14.8022 100.245 14.1332 100.245 13.3116C100.245 12.4299 100.486 11.7157 100.969 11.1703C101.437 10.6619 102.011 10.4076 102.694 10.4076C103.444 10.4076 103.969 10.6538 104.268 11.1472H104.291V8.02026H105.535V14.4995C105.535 15.0299 105.549 15.5187 105.578 15.967ZM104.291 13.6698V12.7615C104.291 12.6044 104.279 12.4772 104.257 12.3802C104.187 12.089 104.037 11.844 103.808 11.6464C103.577 11.4488 103.298 11.3494 102.977 11.3494C102.514 11.3494 102.151 11.5285 101.884 11.8879C101.62 12.2473 101.486 12.706 101.486 13.2665C101.486 13.805 101.613 14.2418 101.868 14.578C102.137 14.9363 102.499 15.1154 102.953 15.1154C103.361 15.1154 103.687 14.9663 103.935 14.667C104.174 14.3908 104.291 14.058 104.291 13.6698Z" fill="black"/>
<path d="M116.201 13.1984C116.201 14.0362 115.956 14.7226 115.465 15.2611C114.951 15.8146 114.271 16.0908 113.418 16.0908C112.599 16.0908 111.946 15.8262 111.458 15.2946C110.972 14.7642 110.729 14.0952 110.729 13.2886C110.729 12.445 110.979 11.7528 111.482 11.2155C111.984 10.6782 112.66 10.4089 113.512 10.4089C114.331 10.4089 114.991 10.6736 115.489 11.204C115.963 11.7193 116.201 12.3849 116.201 13.1984ZM114.914 13.2377C114.914 12.7351 114.803 12.304 114.581 11.9447C114.319 11.5102 113.949 11.2929 113.466 11.2929C112.968 11.2929 112.589 11.5102 112.327 11.9447C112.104 12.304 111.994 12.742 111.994 13.2597C111.994 13.7624 112.105 14.1934 112.327 14.5528C112.596 14.9872 112.97 15.2045 113.454 15.2045C113.928 15.2045 114.301 14.9838 114.569 14.5412C114.798 14.1749 114.914 13.7404 114.914 13.2377Z" fill="black"/>
<path d="M122.88 15.967H121.639V12.847C121.639 11.8855 121.264 11.4048 120.512 11.4048C120.143 11.4048 119.846 11.5366 119.616 11.8012C119.386 12.0658 119.271 12.3778 119.271 12.7349V15.9658H118.028V12.0762C118.028 11.5978 118.014 11.079 117.984 10.5174H119.074L119.132 11.369H119.167C119.312 11.1044 119.528 10.886 119.81 10.7115C120.148 10.5081 120.524 10.4053 120.937 10.4053C121.458 10.4053 121.891 10.5694 122.236 10.8987C122.667 11.302 122.88 11.904 122.88 12.7037V15.967Z" fill="black"/>
<path d="M131.239 11.4271H129.871V14.0733C129.871 14.7458 130.114 15.0821 130.595 15.0821C130.818 15.0821 131.003 15.0636 131.149 15.0255L131.181 15.9441C130.935 16.0343 130.613 16.0793 130.216 16.0793C129.725 16.0793 129.344 15.9337 129.068 15.6425C128.79 15.3513 128.653 14.8614 128.653 14.1738V11.4271H127.836V10.52H128.653V9.52155L129.87 9.16333V10.5188H131.238V11.4271H131.239Z" fill="black"/>
<path d="M137.814 15.967H136.571V12.8701C136.571 11.8937 136.197 11.4049 135.446 11.4049C134.87 11.4049 134.477 11.688 134.261 12.2542C134.224 12.3732 134.203 12.5188 134.203 12.6899V15.9659H132.962V8.02026H134.203V11.3032H134.227C134.618 10.7058 135.178 10.4076 135.905 10.4076C136.419 10.4076 136.845 10.5717 137.183 10.9011C137.603 11.3113 137.814 11.9214 137.814 12.728V15.967Z" fill="black"/>
<path d="M144.597 12.9857C144.597 13.203 144.58 13.3855 144.551 13.5346H140.826C140.842 14.0731 141.02 14.4833 141.365 14.7676C141.68 15.0218 142.087 15.1489 142.585 15.1489C143.136 15.1489 143.638 15.0634 144.091 14.8912L144.285 15.7325C143.756 15.9567 143.132 16.0687 142.41 16.0687C141.545 16.0687 140.864 15.8203 140.371 15.3234C139.875 14.8265 139.63 14.1598 139.63 13.3231C139.63 12.5015 139.859 11.8175 140.32 11.272C140.801 10.6896 141.452 10.3984 142.273 10.3984C143.076 10.3984 143.687 10.6896 144.099 11.272C144.432 11.7343 144.597 12.3063 144.597 12.9857ZM143.412 12.6726C143.421 12.3132 143.34 12.0035 143.171 11.7423C142.956 11.4061 142.627 11.2374 142.183 11.2374C141.777 11.2374 141.447 11.4015 141.194 11.7308C140.988 11.9931 140.866 12.3063 140.826 12.6726H143.412Z" fill="black"/>
<path d="M64.5236 36.8488H61.832L60.3576 32.3318H55.2329L53.8284 36.8488H51.208L56.2853 21.4707H59.4213L64.5236 36.8488ZM59.9132 30.4367L58.5799 26.4211C58.4388 26.0109 58.1745 25.0448 57.7846 23.5241H57.7372C57.5819 24.1782 57.3319 25.1442 56.9882 26.4211L55.6785 30.4367H59.9132Z" fill="black"/>
<path d="M77.5807 31.1681C77.5807 33.054 77.058 34.5446 76.0127 35.639C75.0764 36.6131 73.9137 37.0996 72.5259 37.0996C71.0278 37.0996 69.9517 36.575 69.2963 35.5257H69.2489V41.3671H66.722V29.4105C66.722 28.2249 66.69 27.0081 66.6284 25.7601H68.8506L68.9917 27.5177H69.0391C69.8818 26.1934 71.1606 25.5325 72.8767 25.5325C74.2183 25.5325 75.3383 26.049 76.2343 27.0832C77.1327 28.1186 77.5807 29.4798 77.5807 31.1681ZM75.0065 31.2582C75.0065 30.179 74.7576 29.2892 74.2575 28.5889C73.7111 27.8586 72.9775 27.4934 72.0577 27.4934C71.4343 27.4934 70.8678 27.6968 70.3617 28.0978C69.8545 28.5022 69.5226 29.0303 69.3674 29.6844C69.2892 29.9894 69.25 30.239 69.25 30.4355V32.2844C69.25 33.091 69.5037 33.7716 70.0109 34.3274C70.5182 34.8832 71.1772 35.1606 71.9878 35.1606C72.9395 35.1606 73.6803 34.8023 74.21 34.0882C74.741 33.3729 75.0065 32.43 75.0065 31.2582Z" fill="black"/>
<path d="M90.6616 31.1681C90.6616 33.054 90.1389 34.5446 89.0924 35.639C88.1573 36.6131 86.9946 37.0996 85.6067 37.0996C84.1087 37.0996 83.0325 36.575 82.3783 35.5257H82.3309V41.3671H79.8041V29.4105C79.8041 28.2249 79.7721 27.0081 79.7104 25.7601H81.9327L82.0737 27.5177H82.1211C82.9626 26.1934 84.2414 25.5325 85.9588 25.5325C87.2992 25.5325 88.4192 26.049 89.3176 27.0832C90.2124 28.1186 90.6616 29.4798 90.6616 31.1681ZM88.0873 31.2582C88.0873 30.179 87.8373 29.2892 87.3371 28.5889C86.7907 27.8586 86.0595 27.4934 85.1386 27.4934C84.514 27.4934 83.9487 27.6968 83.4414 28.0978C82.9342 28.5022 82.6035 29.0303 82.4482 29.6844C82.3712 29.9894 82.3309 30.239 82.3309 30.4355V32.2844C82.3309 33.091 82.5845 33.7716 83.0894 34.3274C83.5967 34.8821 84.2556 35.1606 85.0687 35.1606C86.0204 35.1606 86.7611 34.8023 87.2909 34.0882C87.8219 33.3729 88.0873 32.43 88.0873 31.2582Z" fill="black"/>
<path d="M105.287 32.5363C105.287 33.8444 104.821 34.9087 103.886 35.7303C102.858 36.6281 101.428 37.0765 99.5897 37.0765C97.8925 37.0765 96.5319 36.7575 95.502 36.1185L96.0874 34.0651C97.1968 34.7191 98.414 35.0473 99.7402 35.0473C100.692 35.0473 101.433 34.837 101.965 34.4187C102.495 34.0004 102.759 33.4388 102.759 32.7385C102.759 32.1145 102.541 31.5887 102.103 31.1623C101.668 30.7359 100.942 30.3396 99.9274 29.9733C97.166 28.9691 95.7864 27.4981 95.7864 25.5637C95.7864 24.2995 96.27 23.263 97.2383 22.4564C98.203 21.6487 99.4901 21.2454 101.1 21.2454C102.535 21.2454 103.727 21.4892 104.679 21.9757L104.047 23.984C103.158 23.5126 102.153 23.2768 101.028 23.2768C100.14 23.2768 99.4451 23.4906 98.9473 23.9159C98.5266 24.296 98.3156 24.7594 98.3156 25.3083C98.3156 25.9161 98.5562 26.4188 99.0397 26.814C99.4605 27.1791 100.225 27.5743 101.334 28.0007C102.691 28.5335 103.688 29.1563 104.329 29.8704C104.968 30.5823 105.287 31.4732 105.287 32.5363Z" fill="black"/>
<path d="M113.641 27.6089H110.856V32.9926C110.856 34.362 111.347 35.0461 112.33 35.0461C112.782 35.0461 113.156 35.0079 113.453 34.9316L113.523 36.8025C113.025 36.9839 112.369 37.0752 111.558 37.0752C110.56 37.0752 109.78 36.7782 109.217 36.1854C108.656 35.5915 108.374 34.5954 108.374 33.196V27.6066H106.715V25.7577H108.374V23.7274L110.856 22.9971V25.7577H113.641V27.6089Z" fill="black"/>
<path d="M126.208 31.2132C126.208 32.9177 125.708 34.3171 124.71 35.4114C123.663 36.538 122.274 37.0996 120.542 37.0996C118.874 37.0996 117.545 36.56 116.554 35.4807C115.564 34.4014 115.068 33.039 115.068 31.397C115.068 29.6787 115.578 28.2712 116.601 27.1769C117.621 26.0814 118.998 25.5337 120.73 25.5337C122.398 25.5337 123.741 26.0733 124.755 27.1538C125.724 28.2019 126.208 29.555 126.208 31.2132ZM123.586 31.293C123.586 30.2703 123.362 29.3932 122.908 28.6618C122.378 27.7766 121.621 27.3352 120.64 27.3352C119.624 27.3352 118.852 27.7778 118.323 28.6618C117.869 29.3944 117.645 30.2853 117.645 31.3392C117.645 32.3619 117.869 33.2389 118.323 33.9692C118.869 34.8544 119.632 35.2958 120.617 35.2958C121.582 35.2958 122.339 34.8452 122.886 33.9461C123.351 33.2008 123.586 32.3145 123.586 31.293Z" fill="black"/>
<path d="M134.421 27.9268C134.171 27.8817 133.904 27.8586 133.624 27.8586C132.736 27.8586 132.048 28.1856 131.565 28.8408C131.144 29.4186 130.933 30.1489 130.933 31.0306V36.8488H128.407L128.431 29.2522C128.431 27.9742 128.399 26.8105 128.336 25.7613H130.537L130.63 27.8829H130.699C130.966 27.1537 131.387 26.5667 131.963 26.1264C132.526 25.7301 133.134 25.5325 133.789 25.5325C134.023 25.5325 134.234 25.5486 134.421 25.5775V27.9268Z" fill="black"/>
<path d="M145.722 30.7799C145.722 31.2213 145.692 31.5934 145.629 31.8973H138.049C138.078 32.9928 138.445 33.8306 139.149 34.4083C139.788 34.9249 140.614 35.1837 141.628 35.1837C142.75 35.1837 143.774 35.0092 144.695 34.6591L145.091 36.3693C144.015 36.8269 142.745 37.0546 141.278 37.0546C139.515 37.0546 138.131 36.5484 137.123 35.5373C136.118 34.5262 135.615 33.1684 135.615 31.4651C135.615 29.7931 136.083 28.4006 137.02 27.2901C138.001 26.1045 139.328 25.5117 140.996 25.5117C142.636 25.5117 143.876 26.1045 144.719 27.2901C145.386 28.2319 145.722 29.3967 145.722 30.7799ZM143.312 30.1409C143.329 29.4106 143.164 28.7796 142.822 28.2469C142.384 27.5617 141.712 27.2196 140.808 27.2196C139.982 27.2196 139.31 27.5536 138.797 28.2238C138.376 28.7565 138.126 29.3955 138.049 30.1397H143.312V30.1409Z" fill="black"/>
</svg>
