<svg width="22" height="22" viewBox="0 0 22 22" fill="none" xmlns="http://www.w3.org/2000/svg">
<path d="M10.3124 7.20508H1.83325V14.8409C1.83325 14.8959 1.83325 14.9509 1.84242 14.9967H10.3124V7.20508Z" fill="#304C63"/>
<path d="M7.04907 5.82992H10.3124V1.83325H7.07657V5.71992C7.07657 5.75659 7.05824 5.79325 7.04907 5.82992Z" fill="#304C63"/>
<path d="M5.70156 5.71998V1.97998C3.66656 2.40165 2.33739 3.75831 1.95239 5.82998H5.71989C5.71073 5.79331 5.70156 5.75665 5.70156 5.71998Z" fill="#304C63"/>
<path d="M14.8683 1.83325H11.6875V5.82992H14.8683V1.83325Z" fill="#304C63"/>
<path d="M16.2341 5.83011H20.0475C19.6625 3.74011 18.315 2.37428 16.2433 1.97095V5.80261C16.2433 5.81178 16.2341 5.82095 16.2341 5.83011Z" fill="#304C63"/>
<path d="M16.2434 20.0291C18.2509 19.6349 19.5709 18.3516 20.0017 16.3716H16.2434V20.0291Z" fill="#304C63"/>
<path d="M14.8683 16.3716H11.6875V20.1666H14.8683V16.3716Z" fill="#304C63"/>
<path d="M11.6875 14.9967H20.1575C20.1667 14.9509 20.1667 14.8959 20.1667 14.8409V7.20508H11.6875V14.9967Z" fill="#304C63"/>
<path d="M10.3125 16.3716H7.07666V20.1666H10.3125V16.3716Z" fill="#304C63"/>
<path d="M1.99829 16.3716C2.42912 18.3332 3.73079 19.6166 5.70162 20.0199V16.3716H1.99829Z" fill="#304C63"/>
</svg>
