<svg width="161" height="47" viewBox="0 0 161 47" fill="none" xmlns="http://www.w3.org/2000/svg">
<path d="M154.241 46.6665H6.09243C2.83465 46.6665 0.166504 44.0651 0.166504 40.8887V6.22206C0.166504 3.04572 2.83465 0.444282 6.09243 0.444282H154.241C157.498 0.444282 160.166 3.04572 160.166 6.22206V40.8887C160.166 44.0651 157.498 46.6665 154.241 46.6665Z" fill="white"/>
<path d="M154.241 1.37017C156.984 1.37017 159.217 3.54695 159.217 6.22206V40.8887C159.217 43.5638 156.984 45.7406 154.241 45.7406H6.09243C3.34873 45.7406 1.11613 43.5638 1.11613 40.8887V6.22206C1.11613 3.54695 3.34873 1.37017 6.09243 1.37017H154.241ZM154.241 0.444282H6.09243C2.83465 0.444282 0.166504 3.04572 0.166504 6.22206V40.8887C0.166504 44.0651 2.83465 46.6665 6.09243 46.6665H154.241C157.498 46.6665 160.166 44.0651 160.166 40.8887V6.22206C160.166 3.04572 157.498 0.444282 154.241 0.444282Z" fill="#A6A6A6"/>
<path d="M11.6451 9.1557C11.2969 9.51104 11.0955 10.0643 11.0955 10.7807V36.3358C11.0955 37.0523 11.2969 37.6055 11.6451 37.9608L11.731 38.0388L26.4184 23.7244V23.3864L11.731 9.07193L11.6451 9.1557Z" fill="black"/>
<path d="M33.0864 28.4983L28.196 23.7244V23.3864L33.0923 18.6125L33.202 18.6746L39.0005 21.8914C40.6553 22.8043 40.6553 24.3065 39.0005 25.2252L33.202 28.4362L33.0864 28.4983Z" fill="black"/>
<path d="M32.3132 29.325L27.3073 24.4442L12.5339 38.8496C13.0836 39.413 13.9799 39.4809 14.9991 38.9175L32.3132 29.325Z" fill="black"/>
<path d="M32.3132 17.7857L14.9991 8.19317C13.9799 7.63562 13.0836 7.70351 12.5339 8.26684L27.3073 22.6665L32.3132 17.7857Z" fill="black"/>
<path d="M56.3649 12.2815C56.3649 13.2464 56.0686 14.0192 55.4849 14.5955C54.8138 15.2788 53.9397 15.6225 52.8686 15.6225C51.8449 15.6225 50.9708 15.273 50.2538 14.584C49.5353 13.8849 49.1768 13.0269 49.1768 11.9999C49.1768 10.9729 49.5353 10.1149 50.2538 9.42153C50.9708 8.72675 51.8449 8.3772 52.8686 8.3772C53.3782 8.3772 53.8642 8.47975 54.3279 8.67042C54.7901 8.86253 55.1664 9.12253 55.439 9.4432L54.8197 10.0528C54.3442 9.50531 53.6968 9.2352 52.8686 9.2352C52.1219 9.2352 51.4745 9.48942 50.9249 10.0022C50.3812 10.5164 50.1086 11.1823 50.1086 11.9999C50.1086 12.8174 50.3812 13.4891 50.9249 14.0033C51.4745 14.5103 52.1219 14.7703 52.8686 14.7703C53.6612 14.7703 54.3279 14.5103 54.8538 13.9975C55.2005 13.6581 55.3975 13.1901 55.4494 12.5921H52.8686V11.7572H56.3116C56.3531 11.9378 56.3649 12.1125 56.3649 12.2815Z" fill="black" stroke="black" stroke-width="0.142222" stroke-miterlimit="10"/>
<path d="M61.8271 9.38691H58.593V11.5825H61.5086V12.4174H58.593V14.6129H61.8271V15.4637H57.6775V8.53613H61.8271V9.38691Z" fill="black" stroke="black" stroke-width="0.142222" stroke-miterlimit="10"/>
<path d="M65.682 15.4637H64.7664V9.38691H62.7827V8.53613H67.6672V9.38691H65.682V15.4637Z" fill="black" stroke="black" stroke-width="0.142222" stroke-miterlimit="10"/>
<path d="M71.2019 15.4637V8.53613H72.116V15.4637H71.2019Z" fill="black" stroke="black" stroke-width="0.142222" stroke-miterlimit="10"/>
<path d="M76.1678 15.4637H75.2597V9.38691H73.2686V8.53613H78.1589V9.38691H76.1678V15.4637Z" fill="black" stroke="black" stroke-width="0.142222" stroke-miterlimit="10"/>
<path d="M87.4063 14.5724C86.7055 15.273 85.8374 15.6225 84.8018 15.6225C83.7603 15.6225 82.8922 15.273 82.1915 14.5724C81.4922 13.8733 81.144 13.0153 81.144 11.9999C81.144 10.9844 81.4922 10.1264 82.1915 9.42731C82.8922 8.72675 83.7603 8.3772 84.8018 8.3772C85.8314 8.3772 86.6996 8.72675 87.4003 9.43309C88.1055 10.138 88.4537 10.9902 88.4537 11.9999C88.4537 13.0153 88.1055 13.8733 87.4063 14.5724ZM82.8685 13.9918C83.3959 14.5103 84.0374 14.7703 84.8018 14.7703C85.5603 14.7703 86.2077 14.5103 86.7292 13.9918C87.2552 13.4732 87.5218 12.8073 87.5218 11.9999C87.5218 11.1924 87.2552 10.5265 86.7292 10.008C86.2077 9.48942 85.5603 9.22942 84.8018 9.22942C84.0374 9.22942 83.3959 9.48942 82.8685 10.008C82.3426 10.5265 82.0759 11.1924 82.0759 11.9999C82.0759 12.8073 82.3426 13.4732 82.8685 13.9918Z" fill="black" stroke="black" stroke-width="0.142222" stroke-miterlimit="10"/>
<path d="M89.7383 15.4637V8.53613H90.8494L94.3042 13.9239H94.3442L94.3042 12.5921V8.53613H95.2183V15.4637H94.2642L90.6464 9.81013H90.6064L90.6464 11.1477V15.4637H89.7383Z" fill="black" stroke="black" stroke-width="0.142222" stroke-miterlimit="10"/>
<path d="M80.9192 25.5805C78.1355 25.5805 75.8614 27.6461 75.8614 30.496C75.8614 33.3228 78.1355 35.41 80.9192 35.41C83.7088 35.41 85.9829 33.3228 85.9829 30.496C85.9829 27.6461 83.7088 25.5805 80.9192 25.5805ZM80.9192 33.4744C79.3918 33.4744 78.0777 32.2452 78.0777 30.496C78.0777 28.7236 79.3918 27.5161 80.9192 27.5161C82.4466 27.5161 83.7666 28.7236 83.7666 30.496C83.7666 32.2452 82.4466 33.4744 80.9192 33.4744ZM69.8837 25.5805C67.094 25.5805 64.8259 27.6461 64.8259 30.496C64.8259 33.3228 67.094 35.41 69.8837 35.41C72.6718 35.41 74.9414 33.3228 74.9414 30.496C74.9414 27.6461 72.6718 25.5805 69.8837 25.5805ZM69.8837 33.4744C68.3548 33.4744 67.0363 32.2452 67.0363 30.496C67.0363 28.7236 68.3548 27.5161 69.8837 27.5161C71.4111 27.5161 72.7252 28.7236 72.7252 30.496C72.7252 32.2452 71.4111 33.4744 69.8837 33.4744ZM56.7518 27.0871V29.1758H61.8674C61.7177 30.3429 61.3177 31.2009 60.7044 31.7989C59.9577 32.5211 58.7948 33.3228 56.7518 33.3228C53.6037 33.3228 51.1385 30.8455 51.1385 27.7761C51.1385 24.7066 53.6037 22.2294 56.7518 22.2294C58.454 22.2294 59.6926 22.878 60.6066 23.7186L62.1163 22.2468C60.8377 21.0565 59.137 20.1422 56.7518 20.1422C52.4348 20.1422 48.8066 23.567 48.8066 27.7761C48.8066 31.9852 52.4348 35.41 56.7518 35.41C59.0852 35.41 60.8377 34.6646 62.2155 33.2664C63.6274 31.8899 64.0674 29.9543 64.0674 28.3914C64.0674 27.9061 64.0259 27.4598 63.9518 27.0871H56.7518ZM110.45 28.7063C110.033 27.6071 108.749 25.5805 106.133 25.5805C103.54 25.5805 101.381 27.5724 101.381 30.496C101.381 33.2491 103.518 35.41 106.381 35.41C108.697 35.41 110.033 34.0334 110.583 33.2318L108.864 32.1152C108.291 32.9328 107.51 33.4744 106.381 33.4744C105.26 33.4744 104.456 32.9732 103.94 31.9852L110.682 29.2653L110.45 28.7063ZM103.576 30.3429C103.518 28.4478 105.085 27.4771 106.208 27.4771C107.088 27.4771 107.835 27.9061 108.084 28.52L103.576 30.3429ZM98.0955 35.111H100.312V20.6665H98.0955V35.111ZM94.4659 26.6754H94.3918C93.894 26.1005 92.9444 25.5805 91.7414 25.5805C89.217 25.5805 86.9089 27.7414 86.9089 30.5119C86.9089 33.2664 89.217 35.41 91.7414 35.41C92.9444 35.41 93.894 34.8856 94.3918 34.2934H94.4659V34.9983C94.4659 36.8775 93.4363 37.8872 91.7755 37.8872C90.4214 37.8872 89.5814 36.9339 89.2348 36.1322L87.3074 36.9165C87.8629 38.2194 89.334 39.8228 91.7755 39.8228C94.374 39.8228 96.5666 38.3321 96.5666 34.7051V25.8795H94.4659V26.6754ZM91.9311 33.4744C90.4037 33.4744 89.1251 32.2279 89.1251 30.5119C89.1251 28.78 90.4037 27.5161 91.9311 27.5161C93.4363 27.5161 94.6229 28.78 94.6229 30.5119C94.6229 32.2279 93.4363 33.4744 91.9311 33.4744ZM120.826 20.6665H115.525V35.111H117.736V29.638H120.826C123.281 29.638 125.688 27.9061 125.688 25.1515C125.688 22.3984 123.275 20.6665 120.826 20.6665ZM120.884 27.6288H117.736V22.6758H120.884C122.534 22.6758 123.476 24.0119 123.476 25.1515C123.476 26.2695 122.534 27.6288 120.884 27.6288ZM134.547 25.5531C132.95 25.5531 131.29 26.2406 130.607 27.7645L132.568 28.5662C132.99 27.7645 133.767 27.5045 134.587 27.5045C135.734 27.5045 136.897 28.1762 136.915 29.3621V29.5138C136.515 29.2884 135.658 28.9548 134.605 28.9548C132.493 28.9548 130.34 30.0886 130.34 32.2048C130.34 34.1403 132.07 35.3869 134.016 35.3869C135.503 35.3869 136.324 34.7325 136.839 33.9713H136.915V35.0879H139.05V29.547C139.05 26.986 137.088 25.5531 134.547 25.5531ZM134.281 33.4686C133.558 33.4686 132.55 33.1191 132.55 32.2452C132.55 31.1272 133.807 30.6982 134.894 30.6982C135.867 30.6982 136.324 30.9076 136.915 31.1835C136.741 32.5211 135.561 33.4686 134.281 33.4686ZM146.827 25.8694L144.287 32.1311H144.211L141.584 25.8694H139.201L143.147 34.6199L140.895 39.4891H143.205L149.287 25.8694H146.827ZM126.903 35.111H129.119V20.6665H126.903V35.111Z" fill="black"/>
</svg>
