<svg width="40" height="42" viewBox="0 0 40 42" fill="none" xmlns="http://www.w3.org/2000/svg">
<g filter="url(#filter0_d_365_788)">
<path d="M17.3818 29.0503V26.239C17.3818 25.5266 17.9611 24.9478 18.6786 24.9433H21.3133C22.034 24.9433 22.6183 25.5234 22.6183 26.239V29.0421C22.6183 29.66 23.1204 30.1622 23.7428 30.1667H25.5403C26.3797 30.1688 27.1856 29.8392 27.78 29.2507C28.3744 28.6621 28.7084 27.8629 28.7084 27.0294V19.0437C28.7084 18.3704 28.4078 17.7318 27.8876 17.2999L21.7811 12.4514C20.7137 11.6034 19.1892 11.6308 18.1534 12.5166L12.1782 17.2999C11.6334 17.7191 11.3078 18.3596 11.2917 19.0437V27.0213C11.2917 28.7584 12.7102 30.1667 14.4599 30.1667H16.2163C16.516 30.1688 16.8041 30.0522 17.0168 29.8426C17.2294 29.633 17.349 29.3478 17.349 29.0503H17.3818Z" fill="#304C63"/>
</g>
<defs>
<filter id="filter0_d_365_788" x="0.291748" y="0.833344" width="39.4167" height="40.3334" filterUnits="userSpaceOnUse" color-interpolation-filters="sRGB">
<feFlood flood-opacity="0" result="BackgroundImageFix"/>
<feColorMatrix in="SourceAlpha" type="matrix" values="0 0 0 0 0 0 0 0 0 0 0 0 0 0 0 0 0 0 127 0" result="hardAlpha"/>
<feOffset/>
<feGaussianBlur stdDeviation="5.5"/>
<feComposite in2="hardAlpha" operator="out"/>
<feColorMatrix type="matrix" values="0 0 0 0 0.980392 0 0 0 0 0.803921 0 0 0 0 0.4 0 0 0 0.25 0"/>
<feBlend mode="normal" in2="BackgroundImageFix" result="effect1_dropShadow_365_788"/>
<feBlend mode="normal" in="SourceGraphic" in2="effect1_dropShadow_365_788" result="shape"/>
</filter>
</defs>
</svg>
