<svg width="12" height="12" viewBox="0 0 12 12" fill="none" xmlns="http://www.w3.org/2000/svg">
<path d="M10.2223 2.50003C10.2223 2.96027 9.84918 3.33336 9.38894 3.33336C8.92871 3.33336 8.55561 2.96027 8.55561 2.50003C8.55561 2.03979 8.92871 1.6667 9.38894 1.6667C9.84918 1.6667 10.2223 2.03979 10.2223 2.50003Z" fill="white"/>
<path fill-rule="evenodd" clip-rule="evenodd" d="M6.33339 8.33336C7.86751 8.33336 9.11117 7.08971 9.11117 5.55559C9.11117 4.02146 7.86751 2.77781 6.33339 2.77781C4.79926 2.77781 3.55561 4.02146 3.55561 5.55559C3.55561 7.08971 4.79926 8.33336 6.33339 8.33336ZM6.33339 7.22225C7.25386 7.22225 8.00005 6.47606 8.00005 5.55559C8.00005 4.63511 7.25386 3.88892 6.33339 3.88892C5.41291 3.88892 4.66672 4.63511 4.66672 5.55559C4.66672 6.47606 5.41291 7.22225 6.33339 7.22225Z" fill="white"/>
<path fill-rule="evenodd" clip-rule="evenodd" d="M0.777832 5.33336C0.777832 3.46652 0.777832 2.5331 1.14114 1.82006C1.46072 1.19286 1.97066 0.68292 2.59786 0.363342C3.3109 3.05176e-05 4.24432 3.05176e-05 6.11117 3.05176e-05H6.55561C8.42245 3.05176e-05 9.35587 3.05176e-05 10.0689 0.363342C10.6961 0.68292 11.2061 1.19286 11.5256 1.82006C11.8889 2.5331 11.8889 3.46652 11.8889 5.33336V5.77781C11.8889 7.64465 11.8889 8.57807 11.5256 9.29111C11.2061 9.91832 10.6961 10.4283 10.0689 10.7478C9.35587 11.1111 8.42245 11.1111 6.55561 11.1111H6.11117C4.24432 11.1111 3.3109 11.1111 2.59786 10.7478C1.97066 10.4283 1.46072 9.91832 1.14114 9.29111C0.777832 8.57807 0.777832 7.64465 0.777832 5.77781V5.33336ZM6.11117 1.11114H6.55561C7.50737 1.11114 8.15436 1.11201 8.65446 1.15287C9.14159 1.19267 9.3907 1.26481 9.56448 1.35335C9.98262 1.5664 10.3226 1.90636 10.5356 2.3245C10.6242 2.49827 10.6963 2.74739 10.7361 3.23452C10.777 3.73462 10.7778 4.38161 10.7778 5.33336V5.77781C10.7778 6.72956 10.777 7.37656 10.7361 7.87666C10.6963 8.36378 10.6242 8.6129 10.5356 8.78668C10.3226 9.20481 9.98262 9.54477 9.56448 9.75782C9.3907 9.84637 9.14159 9.91851 8.65446 9.95831C8.15436 9.99917 7.50737 10 6.55561 10H6.11117C5.15941 10 4.51242 9.99917 4.01232 9.95831C3.52519 9.91851 3.27607 9.84637 3.1023 9.75782C2.68416 9.54477 2.3442 9.20481 2.13115 8.78668C2.04261 8.6129 1.97047 8.36378 1.93067 7.87666C1.88981 7.37656 1.88894 6.72956 1.88894 5.77781V5.33336C1.88894 4.38161 1.88981 3.73462 1.93067 3.23452C1.97047 2.74739 2.04261 2.49827 2.13115 2.3245C2.3442 1.90636 2.68416 1.5664 3.1023 1.35335C3.27607 1.26481 3.52519 1.19267 4.01232 1.15287C4.51242 1.11201 5.15941 1.11114 6.11117 1.11114Z" fill="white"/>
</svg>
