<svg width="22" height="22" viewBox="0 0 22 22" fill="none" xmlns="http://www.w3.org/2000/svg">
<path d="M15.5833 4.35425H14.6666V2.98841C14.6666 2.22758 14.0433 1.60425 13.2824 1.60425H8.71742C7.95659 1.60425 7.33325 2.22758 7.33325 2.98841V4.35425H6.41659C5.40825 4.35425 4.58325 5.17925 4.58325 6.18758V6.30675C4.87659 6.22425 5.17909 6.18758 5.49992 6.18758H16.4999C16.8208 6.18758 17.1233 6.22425 17.4166 6.30675V6.18758C17.4166 5.17925 16.5916 4.35425 15.5833 4.35425Z" fill="#304C63"/>
<path d="M12.7691 15.5193C12.4757 15.5193 12.2466 15.7576 12.2466 16.0418C12.2466 16.326 12.4849 16.5643 12.7691 16.5643C13.0532 16.5643 13.2916 16.326 13.2916 16.0418C13.2916 15.7576 13.0532 15.5193 12.7691 15.5193Z" fill="#304C63"/>
<path d="M8.31425 16.3259C8.02091 16.3259 7.79175 16.5643 7.79175 16.8484C7.79175 17.1326 8.03008 17.3709 8.31425 17.3709C8.59841 17.3709 8.83675 17.1326 8.83675 16.8484C8.83675 16.5643 8.60758 16.3259 8.31425 16.3259Z" fill="#304C63"/>
<path d="M17.4166 7.68167C17.1233 7.59917 16.8208 7.5625 16.4999 7.5625H5.49992C5.17909 7.5625 4.87659 7.59917 4.58325 7.68167C3.00659 8.09417 1.83325 9.53333 1.83325 11.2292V16.7292C1.83325 18.7458 3.48325 20.3958 5.49992 20.3958H16.4999C18.5166 20.3958 20.1666 18.7458 20.1666 16.7292V11.2292C20.1666 9.53333 18.9933 8.09417 17.4166 7.68167ZM14.6666 12.1733V16.0417C14.6666 17.0867 13.8141 17.9392 12.7691 17.9392C11.7241 17.9392 10.8716 17.0867 10.8716 16.0417C10.8716 14.9967 11.7241 14.1442 12.7691 14.1442C12.9524 14.1442 13.1266 14.1808 13.2916 14.2267V13.0717L10.2208 13.9058V16.8483C10.2208 16.8575 10.2208 16.8667 10.2116 16.8758C10.2024 17.9117 9.34992 18.755 8.31409 18.755C7.26908 18.755 6.41659 17.9025 6.41659 16.8483C6.41659 15.7942 7.26908 14.9508 8.31409 14.9508C8.49742 14.9508 8.67159 14.9875 8.84575 15.0333V13.3833V11.9625C8.84575 11.1742 9.34075 10.5325 10.0924 10.3308L12.5216 9.66167C13.3008 9.45083 13.7958 9.6525 14.0708 9.86333C14.3458 10.0742 14.6666 10.4867 14.6666 11.3025V12.1733Z" fill="#304C63"/>
</svg>
