<svg width="65" height="65" viewBox="0 0 65 65" fill="none" xmlns="http://www.w3.org/2000/svg">
<g id="logo">
<path id="Ellipse 1 (Stroke)" fill-rule="evenodd" clip-rule="evenodd" d="M32.0718 53.6248C43.9188 53.6248 53.5228 44.0208 53.5228 32.1738C53.5228 20.3267 43.9188 10.7228 32.0718 10.7228C20.2247 10.7228 10.6208 20.3267 10.6208 32.1738C10.6208 44.0208 20.2247 53.6248 32.0718 53.6248ZM32.0718 56.6354C45.5816 56.6354 56.5334 45.6836 56.5334 32.1738C56.5334 18.664 45.5816 7.7121 32.0718 7.7121C18.562 7.7121 7.61011 18.664 7.61011 32.1738C7.61011 45.6836 18.562 56.6354 32.0718 56.6354Z" fill="white"/>
<path id="Ellipse 2 (Stroke)" fill-rule="evenodd" clip-rule="evenodd" d="M32.0721 46.8405C40.1723 46.8405 46.7388 40.274 46.7388 32.1738C46.7388 24.0735 40.1723 17.507 32.0721 17.507C23.9719 17.507 17.4053 24.0735 17.4053 32.1738C17.4053 40.274 23.9719 46.8405 32.0721 46.8405ZM32.0721 50.06C41.9504 50.06 49.9584 42.0521 49.9584 32.1738C49.9584 22.2954 41.9504 14.2875 32.0721 14.2875C22.1938 14.2875 14.1858 22.2954 14.1858 32.1738C14.1858 42.0521 22.1938 50.06 32.0721 50.06Z" fill="white"/>
<path id="Ellipse 3 (Stroke)" fill-rule="evenodd" clip-rule="evenodd" d="M32.3804 35.3439C33.7748 35.3439 35.1181 34.1791 35.1181 32.4821C35.1181 30.7852 33.7748 29.6203 32.3804 29.6203C30.986 29.6203 29.6427 30.7852 29.6427 32.4821C29.6427 34.1791 30.986 35.3439 32.3804 35.3439ZM32.3804 41.4253C37.3196 41.4253 41.3235 37.4213 41.3235 32.4821C41.3235 27.543 37.3196 23.539 32.3804 23.539C27.4412 23.539 23.4373 27.543 23.4373 32.4821C23.4373 37.4213 27.4412 41.4253 32.3804 41.4253Z" fill="white"/>
<path id="." d="M51.6414 12.8822C51.6414 12.4668 51.7104 12.0794 51.8483 11.7199C51.9936 11.3524 52.186 11.0328 52.4257 10.7612C52.6726 10.4896 52.9595 10.2779 53.2863 10.1261C53.6204 9.96636 53.9762 9.88647 54.3539 9.88647C54.7315 9.88647 55.0837 9.96636 55.4106 10.1261C55.7446 10.2779 56.0351 10.4896 56.282 10.7612C56.529 11.0328 56.7214 11.3524 56.8594 11.7199C57.0047 12.0794 57.0773 12.4668 57.0773 12.8822C57.0773 13.2976 57.0047 13.6891 56.8594 14.0566C56.7214 14.416 56.529 14.7316 56.282 15.0032C56.0351 15.2668 55.7446 15.4745 55.4106 15.6263C55.0837 15.7861 54.7315 15.866 54.3539 15.866C53.9762 15.866 53.6204 15.7861 53.2863 15.6263C52.9595 15.4745 52.6726 15.2668 52.4257 15.0032C52.186 14.7316 51.9936 14.416 51.8483 14.0566C51.7104 13.6891 51.6414 13.2976 51.6414 12.8822Z" fill="white"/>
</g>
</svg>
