<svg width="30" height="30" viewBox="0 0 30 30" fill="none" xmlns="http://www.w3.org/2000/svg">
<path fill-rule="evenodd" clip-rule="evenodd" d="M15 25.0326C20.5409 25.0326 25.0326 20.5409 25.0326 15C25.0326 9.45916 20.5409 4.96741 15 4.96741C9.45916 4.96741 4.96741 9.45916 4.96741 15C4.96741 20.5409 9.45916 25.0326 15 25.0326ZM15 26.4407C21.3185 26.4407 26.4407 21.3185 26.4407 15C26.4407 8.68149 21.3185 3.55933 15 3.55933C8.68149 3.55933 3.55933 8.68149 3.55933 15C3.55933 21.3185 8.68149 26.4407 15 26.4407Z" fill="white"/>
<path fill-rule="evenodd" clip-rule="evenodd" d="M14.9999 21.8596C18.7884 21.8596 21.8595 18.7885 21.8595 15C21.8595 11.2116 18.7884 8.14041 14.9999 8.14041C11.2114 8.14041 8.14029 11.2116 8.14029 15C8.14029 18.7885 11.2114 21.8596 14.9999 21.8596ZM14.9999 23.3654C19.62 23.3654 23.3653 19.6201 23.3653 15C23.3653 10.38 19.62 6.63464 14.9999 6.63464C10.3798 6.63464 6.63452 10.38 6.63452 15C6.63452 19.6201 10.3798 23.3654 14.9999 23.3654Z" fill="white"/>
<path fill-rule="evenodd" clip-rule="evenodd" d="M15.1441 16.4827C15.7963 16.4827 16.4245 15.9379 16.4245 15.1442C16.4245 14.3506 15.7963 13.8058 15.1441 13.8058C14.492 13.8058 13.8637 14.3506 13.8637 15.1442C13.8637 15.9379 14.492 16.4827 15.1441 16.4827ZM15.1441 19.3269C17.4542 19.3269 19.3268 17.4543 19.3268 15.1442C19.3268 12.8342 17.4542 10.9615 15.1441 10.9615C12.8341 10.9615 10.9614 12.8342 10.9614 15.1442C10.9614 17.4543 12.8341 19.3269 15.1441 19.3269Z" fill="white"/>
<path d="M24.1526 5.9774C24.1526 5.78311 24.1849 5.6019 24.2494 5.43377C24.3173 5.2619 24.4073 5.11245 24.5194 4.98542C24.6349 4.85838 24.7691 4.75937 24.9219 4.68838C25.0782 4.61366 25.2446 4.57629 25.4212 4.57629C25.5979 4.57629 25.7626 4.61366 25.9154 4.68838C26.0717 4.75937 26.2075 4.85838 26.323 4.98542C26.4385 5.11245 26.5285 5.2619 26.5931 5.43377C26.661 5.6019 26.695 5.78311 26.695 5.9774C26.695 6.17169 26.661 6.35477 26.5931 6.52664C26.5285 6.69477 26.4385 6.84235 26.323 6.96939C26.2075 7.09268 26.0717 7.18983 25.9154 7.26082C25.7626 7.33554 25.5979 7.3729 25.4212 7.3729C25.2446 7.3729 25.0782 7.33554 24.9219 7.26082C24.7691 7.18983 24.6349 7.09268 24.5194 6.96939C24.4073 6.84235 24.3173 6.69477 24.2494 6.52664C24.1849 6.35477 24.1526 6.17169 24.1526 5.9774Z" fill="white"/>
</svg>
