<svg width="22" height="22" viewBox="0 0 22 22" fill="none" xmlns="http://www.w3.org/2000/svg">
<path d="M7.10425 1.83331V4.58331H6.41675C6.17841 4.58331 5.94925 4.59248 5.72925 4.62915V1.83331C5.72925 1.45748 6.04091 1.14581 6.41675 1.14581C6.79258 1.14581 7.10425 1.45748 7.10425 1.83331Z" fill="#304C63"/>
<path d="M15.5833 4.58331H6.41659C6.17825 4.58331 5.94909 4.59248 5.72909 4.62915C3.36409 4.90415 1.83325 6.65498 1.83325 9.16665V15.5833C1.83325 18.3333 3.66659 20.1666 6.41659 20.1666H15.5833C18.3333 20.1666 20.1666 18.3333 20.1666 15.5833V9.16665C20.1666 6.41665 18.3333 4.58331 15.5833 4.58331ZM7.22325 14.6666C5.95825 14.6666 4.93159 13.64 4.93159 12.375C4.93159 11.11 5.95825 10.0833 7.22325 10.0833C8.48825 10.0833 9.51492 11.11 9.51492 12.375C9.51492 13.64 8.48825 14.6666 7.22325 14.6666ZM13.1816 14.8958H12.7233C12.3474 14.8958 12.0358 14.5841 12.0358 14.2083C12.0358 13.8325 12.3474 13.5208 12.7233 13.5208H13.1816C13.5574 13.5208 13.8691 13.8325 13.8691 14.2083C13.8691 14.5841 13.5574 14.8958 13.1816 14.8958ZM16.3899 14.8958H15.9316C15.5558 14.8958 15.2441 14.5841 15.2441 14.2083C15.2441 13.8325 15.5558 13.5208 15.9316 13.5208H16.3899C16.7658 13.5208 17.0774 13.8325 17.0774 14.2083C17.0774 14.5841 16.7658 14.8958 16.3899 14.8958ZM16.3899 11.2291H12.7233C12.3474 11.2291 12.0358 10.9175 12.0358 10.5416C12.0358 10.1658 12.3474 9.85415 12.7233 9.85415H16.3899C16.7658 9.85415 17.0774 10.1658 17.0774 10.5416C17.0774 10.9175 16.7658 11.2291 16.3899 11.2291Z" fill="#304C63"/>
</svg>
