<svg width="25" height="25" viewBox="0 0 25 25" fill="none" xmlns="http://www.w3.org/2000/svg">
<path d="M9.13002 21.7852C6.67991 21.7852 4.39599 21.0726 2.47363 19.843C4.10578 19.9486 6.98614 19.6957 8.77772 17.9868C6.08259 17.8631 4.86714 15.7961 4.70861 14.9127C4.9376 15.0011 6.02975 15.1071 6.64628 14.8597C3.546 14.0824 3.07039 11.3617 3.17608 10.5313C3.75738 10.9377 4.74384 11.079 5.13137 11.0437C2.24248 8.97663 3.28177 5.86724 3.79261 5.19589C5.86579 8.0681 8.97284 9.68124 12.8167 9.77097C12.7442 9.45311 12.7059 9.12219 12.7059 8.78229C12.7059 6.34299 14.6776 4.36554 17.1097 4.36554C18.3805 4.36554 19.5255 4.90536 20.3293 5.76884C21.1785 5.56985 22.4565 5.10403 23.0813 4.70121C22.7664 5.8319 21.7859 6.77513 21.1929 7.12472C21.1881 7.11278 21.1978 7.13662 21.1929 7.12472C21.7138 7.04592 23.1234 6.77504 23.6802 6.39725C23.4048 7.03245 22.3654 8.0886 21.5124 8.67988C21.6711 15.6793 16.3158 21.7852 9.13002 21.7852Z" fill="#47ACDF"/>
</svg>
